<svg width="509" height="506" viewBox="0 0 509 506" fill="none" xmlns="http://www.w3.org/2000/svg">
<path d="M71.241 59.4536C38.7874 91.907 38.7874 144.14 38.7874 248.606C38.7874 309.345 38.7874 352.427 45.1662 384.23L43.3419 390.047L28.0095 442.029C22.2796 463.443 41.871 483.033 63.2857 477.304L112.616 464.105L118.595 462.48C150.941 470.213 195.63 470.213 260.394 470.213H260.394H260.395C364.86 470.213 417.094 470.213 449.546 437.759C482 405.306 482 353.072 482 248.606C482 144.14 482 91.907 449.546 59.4536C417.094 27 364.86 27 260.394 27C155.928 27 103.694 27 71.241 59.4536Z" fill="white" stroke="white" stroke-width="53.4152"/>
<path d="M71.241 59.4536C38.7874 91.907 38.7874 144.14 38.7874 248.606C38.7874 309.345 38.7874 352.427 45.1662 384.23L43.3419 390.047L28.0095 442.029C22.2796 463.443 41.871 483.033 63.2857 477.304L112.616 464.105L118.595 462.48C150.941 470.213 195.63 470.213 260.394 470.213H260.394H260.395C364.86 470.213 417.094 470.213 449.546 437.759C482 405.306 482 353.072 482 248.606C482 144.14 482 91.907 449.546 59.4536C417.094 27 364.86 27 260.394 27C155.928 27 103.694 27 71.241 59.4536Z" stroke="#0059FF" stroke-width="33.241"/>
<path d="M144.649 388.027L190.199 333.368V344.134L144.649 398.794V388.027Z" fill="#0059FF"/>
<path d="M376.538 388.027L330.988 333.368V344.134L376.538 398.794V388.027Z" fill="#0059FF"/>
<path d="M144.649 98.166V357.385L190.199 302.725V231.502L249.681 305.431C255.288 312.399 265.899 312.399 271.506 305.431L330.988 231.502V302.725L376.538 357.385V98.166L260.593 242.269L144.649 98.166Z" fill="#0059FF"/>
<path d="M256.635 173.454L175.975 272.341V292.755L260.511 189.116L345.047 292.755V272.341L264.387 173.454C262.386 171 258.636 171 256.635 173.454Z" fill="#0059FF"/>
</svg>
